<svg width="150" height="33" viewBox="0 0 150 33" fill="none" xmlns="http://www.w3.org/2000/svg">
<path d="M16.5 33C25.6127 33 33 25.6127 33 16.5C33 7.3873 25.6127 0 16.5 0C7.3873 0 0 7.3873 0 16.5C0 25.6127 7.3873 33 16.5 33Z" fill="url(#paint0_linear_7_207)"/>
<path d="M21.0757 7.33325C21.4806 7.33374 21.8687 7.49479 22.155 7.78108C22.4413 8.06738 22.6024 8.45554 22.6028 8.86042V10.5686L24.4866 12.456C25.2331 13.2028 25.6538 14.2147 25.6567 15.2707V25.3513C25.6568 25.3914 25.6489 25.4312 25.6336 25.4683C25.6182 25.5054 25.5957 25.5392 25.5673 25.5676C25.5389 25.596 25.5052 25.6185 25.4681 25.6338C25.431 25.6492 25.3912 25.657 25.351 25.657H19.8547C19.8145 25.657 19.7747 25.6492 19.7376 25.6338C19.7005 25.6185 19.6668 25.596 19.6384 25.5676C19.61 25.5392 19.5875 25.5054 19.5721 25.4683C19.5568 25.4312 19.5489 25.3914 19.549 25.3513V22.3849L19.3739 22.1044C19.0114 21.525 18.7883 20.8694 18.7223 20.1891C18.6563 19.5089 18.7491 18.8226 18.9935 18.1843L11.8242 20.9458C11.4464 21.0914 11.0261 21.081 10.6559 20.9168C10.2857 20.7526 9.99591 20.4482 9.85017 20.0703L8.70251 17.0903C8.32779 17.0521 7.98048 16.8765 7.72759 16.5974C7.47469 16.3182 7.33413 15.9553 7.33301 15.5787V8.86042C7.33349 8.45554 7.49455 8.06738 7.78084 7.78108C8.06713 7.49479 8.45529 7.33374 8.86017 7.33325H21.0757ZM25.0458 22.6031H20.1599V25.046H25.0458V22.6031ZM21.3809 23.2136V23.8245H20.7704V23.2136H21.3809ZM23.0653 11.8973L24.0988 14.5809C24.2442 14.9586 24.2336 15.3786 24.0695 15.7486C23.9053 16.1186 23.601 16.4083 23.2234 16.554L22.9104 16.6759L24.0402 17.8062L23.6084 18.2379L18.7418 13.3727C18.5536 13.184 18.299 13.0766 18.0324 13.0735C17.7659 13.0704 17.5089 13.172 17.3164 13.3563C17.1239 13.5406 17.0113 13.7931 17.0028 14.0595C16.9944 14.3259 17.0907 14.585 17.271 14.7812L19.7736 17.5115C19.8634 17.6091 19.8799 17.7544 19.8139 17.869C19.4718 18.467 19.2983 19.1466 19.312 19.8354C19.3256 20.5242 19.5258 21.1964 19.8913 21.7804L20.0238 21.9921H25.0458V15.2707C25.0433 14.3768 24.687 13.5202 24.0548 12.8883L23.0653 11.8969V11.8973ZM18.5745 17.104H13.5503V17.1058L9.90517 18.5106L10.4203 19.8503C10.4636 19.9626 10.5285 20.0653 10.6114 20.1525C10.6944 20.2397 10.7936 20.3097 10.9036 20.3585C11.0136 20.4073 11.1321 20.434 11.2524 20.437C11.3727 20.44 11.4924 20.4193 11.6047 20.376L18.9715 17.5367L18.5745 17.104ZM11.8563 17.1058H9.36297L9.68472 17.9418L11.8563 17.1058ZM21.0757 7.94375H8.86017C8.61706 7.94375 8.3839 8.04033 8.21199 8.21224C8.04008 8.38415 7.94351 8.6173 7.94351 8.86042V15.5787C7.94351 15.8218 8.04008 16.0549 8.21199 16.2268C8.3839 16.3988 8.61706 16.4953 8.86017 16.4953H18.0149L16.8223 15.1923C16.5419 14.8773 16.3945 14.4657 16.4113 14.0443C16.428 13.6229 16.6075 13.2243 16.912 12.9325C17.2165 12.6407 17.6224 12.4783 18.0441 12.4795C18.4659 12.4808 18.8708 12.6455 19.1736 12.9391L21.9713 15.7373C21.9827 15.685 21.9896 15.6318 21.9919 15.5787V10.8083L21.9891 10.8015H21.9919V8.86042C21.9919 8.61738 21.8954 8.38429 21.7236 8.2124C21.5518 8.0405 21.3187 7.94387 21.0757 7.94375ZM22.6028 12.3951V15.5787C22.6023 15.7891 22.5583 15.9971 22.4736 16.1896L23.0034 15.9852C23.1158 15.942 23.2185 15.8771 23.3057 15.7942C23.3929 15.7113 23.463 15.612 23.5119 15.502C23.5607 15.3921 23.5874 15.2735 23.5905 15.1532C23.5935 15.0329 23.5728 14.9132 23.5296 14.8009L22.6028 12.3946V12.3951ZM10.0812 14.3572V14.9682H8.86017V14.3572H10.0816H10.0812ZM15.5784 14.3572V14.9682H14.357V14.3572H15.5784ZM10.0816 12.5248V13.1358H8.86017V12.5248H10.0816ZM11.914 12.5248V13.1358H10.6921V12.5248H11.914ZM13.7465 12.5248V13.1358H12.5245V12.5248H13.7465ZM15.5784 12.5248V13.1358H14.357V12.5248H15.5784ZM10.8145 8.55471C11.2531 8.55471 11.6083 8.91038 11.6083 9.349V10.8148C11.6083 11.2534 11.2531 11.6086 10.8145 11.6086H9.34876C9.24447 11.6086 9.14119 11.5882 9.04483 11.5483C8.94846 11.5084 8.8609 11.45 8.78714 11.3762C8.71337 11.3025 8.65486 11.215 8.61494 11.1186C8.57501 11.0223 8.55447 10.919 8.55447 10.8148V9.349C8.55447 8.91038 8.91013 8.55471 9.34876 8.55471H10.8145ZM10.8145 9.16567H9.34876C9.30014 9.16567 9.2535 9.18498 9.21912 9.21937C9.18474 9.25375 9.16542 9.30038 9.16542 9.349V9.77617H9.77592V10.3871H9.16542V10.8148C9.16542 10.9156 9.24747 10.9981 9.34876 10.9981H10.8145C10.8631 10.9981 10.9098 10.9788 10.9441 10.9444C10.9785 10.91 10.9978 10.8634 10.9978 10.8148V10.3871H10.3869V9.77617H10.9978V9.349C10.9978 9.30038 10.9785 9.25375 10.9441 9.21937C10.9098 9.18498 10.8631 9.16567 10.8145 9.16567ZM20.7704 8.86042V9.77617H20.1595V8.86042H20.7704ZM19.5485 8.86042V9.77617H18.938V8.86042H19.5485ZM18.327 8.86042V9.77617H17.7165V8.86042H18.327ZM17.1056 8.86042V9.77617H16.4946V8.86042H17.1056Z" fill="white"/>
<path d="M41.62 9.54H51.46L51.45 11.98H44.56V15.61H50.53V18H44.56V24H41.62V9.54ZM57.1303 24.2C56.6503 24.2 56.177 24.1267 55.7103 23.98C55.2503 23.8333 54.8303 23.6167 54.4503 23.33C54.0703 23.0433 53.7636 22.69 53.5303 22.27C53.3036 21.85 53.1903 21.3633 53.1903 20.81V13.66H56.1103V20.44C56.1103 20.92 56.267 21.3133 56.5803 21.62C56.8936 21.9267 57.3536 22.08 57.9603 22.08C58.5336 22.08 58.987 21.9333 59.3203 21.64C59.6603 21.34 59.8303 20.9233 59.8303 20.39V13.66H62.7203V24H60.5203L60.1803 21.95C60.0603 22.5567 59.8336 23.0233 59.5003 23.35C59.1736 23.67 58.797 23.89 58.3703 24.01C57.9503 24.1367 57.537 24.2 57.1303 24.2ZM65.1562 24V13.66H68.0263V15.12C68.1863 14.8667 68.3929 14.6233 68.6463 14.39C68.9063 14.15 69.2329 13.9533 69.6263 13.8C70.0196 13.6467 70.4863 13.57 71.0263 13.57C71.6596 13.57 72.2496 13.6933 72.7963 13.94C73.3496 14.1867 73.7963 14.5767 74.1363 15.11C74.4763 15.6367 74.6463 16.3267 74.6463 17.18V24H71.7263V17.54C71.7263 16.98 71.5596 16.56 71.2263 16.28C70.8929 16 70.4863 15.86 70.0063 15.86C69.6863 15.86 69.3763 15.9167 69.0763 16.03C68.7829 16.1433 68.5429 16.3133 68.3563 16.54C68.1696 16.7667 68.0763 17.0467 68.0763 17.38V24H65.1562ZM80.8517 24.2C79.4651 24.2 78.3851 23.7233 77.6117 22.77C76.8384 21.81 76.4517 20.4767 76.4517 18.77C76.4517 17.69 76.6084 16.7533 76.9217 15.96C77.2351 15.1667 77.6984 14.5533 78.3117 14.12C78.9251 13.68 79.6751 13.46 80.5617 13.46C80.9351 13.46 81.2817 13.5033 81.6017 13.59C81.9284 13.67 82.2251 13.7833 82.4917 13.93C82.7584 14.0767 82.9917 14.2467 83.1917 14.44C83.3917 14.6333 83.5551 14.84 83.6817 15.06V9.14H86.6117V24H84.4917L84.1617 21.88C84.0684 22.1667 83.9384 22.4467 83.7717 22.72C83.6051 22.9933 83.3917 23.2433 83.1317 23.47C82.8717 23.69 82.5517 23.8667 82.1717 24C81.7984 24.1333 81.3584 24.2 80.8517 24.2ZM81.4917 22.1C82.2251 22.1 82.7717 21.8433 83.1317 21.33C83.4984 20.8167 83.6817 19.95 83.6817 18.73C83.6751 18.0233 83.5917 17.4367 83.4317 16.97C83.2717 16.5033 83.0317 16.1567 82.7117 15.93C82.3984 15.6967 81.9984 15.58 81.5117 15.58C80.8784 15.58 80.3517 15.8233 79.9317 16.31C79.5117 16.79 79.3017 17.5967 79.3017 18.73C79.3017 19.8833 79.4984 20.7333 79.8917 21.28C80.2851 21.8267 80.8184 22.1 81.4917 22.1ZM89.4911 9.54H99.3311L99.3211 11.98H92.4311V15.61H98.4011V18H92.4311V24H89.4911V9.54ZM104.327 13.66V24H101.537V13.66H104.327ZM104.357 9.55V12.18H101.517V9.55H104.357ZM107.031 24V13.66H109.901V15.12C110.061 14.8667 110.268 14.6233 110.521 14.39C110.781 14.15 111.108 13.9533 111.501 13.8C111.895 13.6467 112.361 13.57 112.901 13.57C113.535 13.57 114.125 13.6933 114.671 13.94C115.225 14.1867 115.671 14.5767 116.011 15.11C116.351 15.6367 116.521 16.3267 116.521 17.18V24H113.601V17.54C113.601 16.98 113.435 16.56 113.101 16.28C112.768 16 112.361 15.86 111.881 15.86C111.561 15.86 111.251 15.9167 110.951 16.03C110.658 16.1433 110.418 16.3133 110.231 16.54C110.045 16.7667 109.951 17.0467 109.951 17.38V24H107.031ZM122.727 24.2C121.34 24.2 120.26 23.7233 119.487 22.77C118.713 21.81 118.327 20.4767 118.327 18.77C118.327 17.69 118.483 16.7533 118.797 15.96C119.11 15.1667 119.573 14.5533 120.187 14.12C120.8 13.68 121.55 13.46 122.437 13.46C122.81 13.46 123.157 13.5033 123.477 13.59C123.803 13.67 124.1 13.7833 124.367 13.93C124.633 14.0767 124.867 14.2467 125.067 14.44C125.267 14.6333 125.43 14.84 125.557 15.06V9.14H128.487V24H126.367L126.037 21.88C125.943 22.1667 125.813 22.4467 125.647 22.72C125.48 22.9933 125.267 23.2433 125.007 23.47C124.747 23.69 124.427 23.8667 124.047 24C123.673 24.1333 123.233 24.2 122.727 24.2ZM123.367 22.1C124.1 22.1 124.647 21.8433 125.007 21.33C125.373 20.8167 125.557 19.95 125.557 18.73C125.55 18.0233 125.467 17.4367 125.307 16.97C125.147 16.5033 124.907 16.1567 124.587 15.93C124.273 15.6967 123.873 15.58 123.387 15.58C122.753 15.58 122.227 15.8233 121.807 16.31C121.387 16.79 121.177 17.5967 121.177 18.73C121.177 19.8833 121.373 20.7333 121.767 21.28C122.16 21.8267 122.693 22.1 123.367 22.1ZM133.396 19.5C133.389 20.0267 133.473 20.4867 133.646 20.88C133.819 21.2667 134.069 21.5667 134.396 21.78C134.729 21.9867 135.129 22.09 135.596 22.09C136.096 22.09 136.533 21.9833 136.906 21.77C137.286 21.5567 137.549 21.2067 137.696 20.72H140.326C140.213 21.4533 139.919 22.08 139.446 22.6C138.979 23.12 138.413 23.5167 137.746 23.79C137.079 24.0633 136.386 24.2 135.666 24.2C134.646 24.2 133.746 23.9867 132.966 23.56C132.193 23.1267 131.589 22.5167 131.156 21.73C130.723 20.9433 130.506 20.0167 130.506 18.95C130.506 17.9167 130.703 16.9867 131.096 16.16C131.489 15.3267 132.059 14.67 132.806 14.19C133.559 13.7033 134.463 13.46 135.516 13.46C136.569 13.46 137.453 13.6833 138.166 14.13C138.886 14.57 139.426 15.1867 139.786 15.98C140.153 16.7667 140.336 17.6767 140.336 18.71V19.5H133.396ZM133.386 17.76H137.606C137.606 17.3467 137.529 16.9667 137.376 16.62C137.223 16.2733 136.989 16 136.676 15.8C136.369 15.6 135.983 15.5 135.516 15.5C135.063 15.5 134.676 15.61 134.356 15.83C134.043 16.0433 133.803 16.3233 133.636 16.67C133.469 17.0167 133.386 17.38 133.386 17.76ZM142.363 24V13.66H145.173V16.11C145.34 15.5833 145.573 15.1233 145.873 14.73C146.18 14.33 146.55 14.02 146.983 13.8C147.417 13.5733 147.907 13.46 148.453 13.46C148.547 13.46 148.633 13.4667 148.713 13.48C148.8 13.4867 148.863 13.5 148.903 13.52V16.3C148.843 16.2733 148.77 16.2567 148.683 16.25C148.603 16.2433 148.53 16.2367 148.463 16.23C147.89 16.1833 147.4 16.2 146.993 16.28C146.587 16.36 146.257 16.4967 146.003 16.69C145.75 16.8833 145.567 17.12 145.453 17.4C145.34 17.68 145.283 17.9933 145.283 18.34V24H142.363Z" fill="black"/>
<defs>
<linearGradient id="paint0_linear_7_207" x1="0" y1="0" x2="32.8614" y2="32.8614" gradientUnits="userSpaceOnUse">
<stop stop-color="#33D35E"/>
<stop offset="1" stop-color="#2AB6D9"/>
</linearGradient>
</defs>
</svg>
